<svg width="100" height="29" fill="none" xmlns="http://www.w3.org/2000/svg"><rect width="100" height="29" rx="14.5" fill="#313131"/><path d="M26.65 13h-1.057a2.196 2.196 0 0 0-.89-1.38 2.385 2.385 0 0 0-.73-.359 2.908 2.908 0 0 0-.834-.119c-.529 0-1.008.134-1.437.4-.426.268-.765.661-1.018 1.181-.25.52-.375 1.158-.375 1.913 0 .756.125 1.394.375 1.914.253.52.592.913 1.018 1.18.43.267.908.4 1.436.4.29 0 .569-.04.836-.119.267-.08.51-.197.728-.353a2.245 2.245 0 0 0 .891-1.385h1.057c-.08.446-.225.845-.435 1.197a3.273 3.273 0 0 1-1.836 1.458c-.387.127-.8.191-1.24.191-.745 0-1.407-.181-1.986-.545-.58-.364-1.036-.88-1.368-1.551-.333-.67-.499-1.466-.499-2.387 0-.92.166-1.715.499-2.386.332-.67.788-1.188 1.368-1.551.58-.364 1.241-.546 1.986-.546.44 0 .853.064 1.24.192.389.128.74.316 1.052.563.313.244.574.542.784.895.21.349.355.748.435 1.197Zm4.23 6.136c-.59 0-1.109-.14-1.555-.421a2.866 2.866 0 0 1-1.04-1.18c-.247-.507-.37-1.098-.37-1.774 0-.681.123-1.277.37-1.785a2.86 2.86 0 0 1 1.04-1.185c.446-.281.964-.422 1.555-.422s1.108.14 1.552.422a2.82 2.82 0 0 1 1.04 1.185c.25.508.374 1.103.374 1.785 0 .677-.125 1.267-.375 1.773-.247.506-.593.9-1.04 1.18-.443.282-.96.422-1.55.422Zm0-.903c.45 0 .819-.115 1.108-.345.29-.23.505-.533.644-.908s.209-.781.209-1.219c0-.437-.07-.845-.21-1.223a2.06 2.06 0 0 0-.643-.916c-.29-.233-.659-.35-1.108-.35-.448 0-.818.117-1.108.35a2.06 2.06 0 0 0-.643.916 3.51 3.51 0 0 0-.209 1.223c0 .438.07.844.209 1.22.14.374.354.677.643.907.29.23.66.345 1.108.345Zm4.982-5.779 1.568 2.677 1.568-2.677h1.16l-2.114 3.273L40.157 19h-1.159l-1.568-2.54L35.862 19h-1.16l2.08-3.273-2.08-3.273h1.16Zm5.73 9v-9h.972v1.04h.12c.073-.113.175-.258.306-.434.134-.18.324-.338.571-.478.25-.142.588-.213 1.014-.213.551 0 1.037.138 1.458.414.42.275.748.666.984 1.171.236.506.354 1.103.354 1.79 0 .694-.118 1.294-.354 1.803-.236.506-.563.898-.98 1.176-.418.276-.9.413-1.445.413-.42 0-.757-.07-1.01-.208a1.871 1.871 0 0 1-.583-.482 6.454 6.454 0 0 1-.316-.452h-.085v3.46h-1.006Zm.989-5.727c0 .495.072.93.217 1.308.145.375.357.67.635.883.279.21.62.315 1.023.315.42 0 .771-.11 1.052-.332.285-.225.498-.526.64-.904.145-.38.217-.804.217-1.27 0-.46-.071-.875-.213-1.244a1.923 1.923 0 0 0-.635-.882c-.281-.219-.635-.328-1.061-.328-.41 0-.753.103-1.031.31a1.868 1.868 0 0 0-.631.862c-.142.366-.213.794-.213 1.282Zm8.25 3.426a2.66 2.66 0 0 1-1.13-.234 1.939 1.939 0 0 1-.805-.686c-.199-.301-.298-.665-.298-1.091 0-.375.074-.679.222-.912.147-.236.345-.42.592-.554.247-.133.52-.233.818-.298a10 10 0 0 1 .908-.162c.398-.051.72-.09.967-.115.25-.029.432-.075.546-.14.116-.066.174-.18.174-.342v-.034c0-.42-.115-.747-.345-.98-.227-.233-.572-.35-1.035-.35-.48 0-.857.106-1.13.316-.272.21-.464.435-.575.673l-.955-.34c.171-.398.398-.708.682-.93.287-.224.6-.38.938-.468.34-.091.676-.137 1.005-.137.21 0 .452.026.725.077.276.048.541.15.797.303.258.153.473.384.643.694.17.31.256.725.256 1.245V19h-1.006v-.886h-.05a1.767 1.767 0 0 1-.342.456c-.159.162-.37.3-.635.413-.264.114-.586.17-.967.17Zm.153-.903c.398 0 .733-.078 1.006-.234a1.595 1.595 0 0 0 .835-1.385v-.92c-.042.05-.136.097-.281.14-.142.04-.307.075-.494.106a22.303 22.303 0 0 1-.963.128c-.262.034-.506.09-.733.166a1.264 1.264 0 0 0-.546.337c-.136.148-.204.35-.204.605 0 .35.129.614.388.793.26.176.592.264.992.264Zm9.063-2.983v.938h-3.613v-.938h3.613Zm-3.375-2.813V19h-1.005v-6.546h1.005Zm4.142 0V19H59.81v-6.546h1.005Zm2.843 5.063 3.153-5.063h1.16V19h-1.007v-5.063L63.827 19h-1.176v-6.546h1.006v5.063Zm5.264-4.125v-.938h5.318v.938H72.09V19h-1.006v-5.608h-2.164Zm7.654 1.432h1.875c.767 0 1.354.194 1.76.584.406.389.61.882.61 1.478 0 .392-.092.749-.273 1.07a1.98 1.98 0 0 1-.802.763c-.352.187-.784.281-1.295.281h-2.744v-6.546h1.005v5.608h1.739c.398 0 .724-.105.98-.315.256-.21.384-.48.384-.81 0-.346-.128-.629-.384-.848-.256-.218-.582-.328-.98-.328h-1.875v-.937Z" fill="#fff"/></svg>