<?xml version="1.0" encoding="iso-8859-1"?>
<!-- Generator: Adobe Illustrator 19.0.0, SVG Export Plug-In . SVG Version: 6.00 Build 0)  -->
<svg version="1.1" id="Layer_1" xmlns="http://www.w3.org/2000/svg" xmlns:xlink="http://www.w3.org/1999/xlink" x="0px" y="0px"
	 viewBox="0 0 512 512" style="enable-background:new 0 0 512 512;" xml:space="preserve">
<circle style="fill:#45B39C;" cx="256" cy="256" r="256"/>
<path style="opacity:0.1;enable-background:new    ;" d="M124.773,124.795c-13.6,13.6-19.307,29.92-12.693,36.533l0.053,0.053
	l111.093,111.093l-29.28,29.28l180.949,180.949c33.376-17.541,62.405-42.208,85.051-72.016l-298.64-298.64
	C154.747,105.488,138.373,111.195,124.773,124.795z"/>
<ellipse transform="matrix(-0.7071 0.7071 -0.7071 -0.7071 330.0034 136.6847)" style="fill:#EBF0F3;" cx="136.693" cy="136.688" rx="34.821" ry="16.848"/>
<path style="fill:#D5D6DB;" d="M351.003,400.245L112.133,161.376c13.824,13.824,63.067-35.419,49.243-49.243l238.869,238.869
	C414.069,364.827,364.827,414.069,351.003,400.245z"/>
<path style="fill:#E56353;" d="M299.829,250.587l-27.355-27.355c-16.48,22.667-26.56,32.747-49.243,49.243l27.355,27.355
	C272.235,283.707,283.723,272.245,299.829,250.587z"/>
<polygon style="fill:#D15241;" points="221.003,328.784 214.523,308.219 193.963,301.744 223.232,272.475 250.272,299.515 "/>
<g>
</g>
<g>
</g>
<g>
</g>
<g>
</g>
<g>
</g>
<g>
</g>
<g>
</g>
<g>
</g>
<g>
</g>
<g>
</g>
<g>
</g>
<g>
</g>
<g>
</g>
<g>
</g>
<g>
</g>
</svg>
